PathFileType	4	(X/Y/Z)	C:/Users/opensim2020/Desktop/walking_exp_matlab/subject02_walking13_straight_03.trc																																																																																																																									
DataRate	CameraRate	NumFrames	NumMarkers	Units	OrigDataRate	OrigDataStartFrame	OrigNumFrames																																																																																																																					
100	100	4	41	mm	100	1344	129																																																																																																																					
Frame#	Time	LFHD			RFHD			LBHD			RBHD			C7			T10			CLAV			STRN			RBAK			LSHO			LUPA			LELB			LFRM			LWRA			LWRB			LFIN			RSHO			RUPA			RELB			RFRM			RWRA			RWRB			RFIN			LASI			RASI			LPSI			RPSI			LTHI			LKNE			LTIB			LANK			LHEE			LTOE			RTHI			RKNE			RTIB			RANK			RHEE			RTOE			*39			*40		
		X1	Y1	Z1	X2	Y2	Z2	X3	Y3	Z3	X4	Y4	Z4	X5	Y5	Z5	X6	Y6	Z6	X7	Y7	Z7	X8	Y8	Z8	X9	Y9	Z9	X10	Y10	Z10	X11	Y11	Z11	X12	Y12	Z12	X13	Y13	Z13	X14	Y14	Z14	X15	Y15	Z15	X16	Y16	Z16	X17	Y17	Z17	X18	Y18	Z18	X19	Y19	Z19	X20	Y20	Z20	X21	Y21	Z21	X22	Y22	Z22	X23	Y23	Z23	X24	Y24	Z24	X25	Y25	Z25	X26	Y26	Z26	X27	Y27	Z27	X28	Y28	Z28	X29	Y29	Z29	X30	Y30	Z30	X31	Y31	Z31	X32	Y32	Z32	X33	Y33	Z33	X34	Y34	Z34	X35	Y35	Z35	X36	Y36	Z36	X37	Y37	Z37	X38	Y38	Z38	X39	Y39	Z39	X40	Y40	Z40	X41	Y41	Z41
																																																																																																																												
33	0.32	-243.64743	1709.23767	-1061.78284	-273.88245	1683.06299	-922.68634	-373.67896	1642.66394	-1100.91711	-414.89243	1616.14368	-966.34235	-448.12448	1494.01355	-1029.83923	-494.84964	1217.34106	-1028.46899	-305.3681	1428.68079	-1045.89075	-249.96669	1258.97607	-1035.46997	-501.4415	1318.5321	-964.06958	-385.31259	1468.22412	-1211.25476	-455.33975	1276.67664	-1282.47095	-500.22409	1143.96814	-1276.84998	-544.54364	1020.45215	-1286.78186	-557.01727	884.3291	-1239.17981	-586.00647	902.85278	-1285.33093	-613.67902	839.41327	-1271.06885	-367.45621	1463.81555	-847.9397	-362.33493	1277.03125	-755.54803	-309.58762	1137.02173	-731.34113	-224.20572	1048.4408	-730.68188	-120.14043	972.81464	-768.7702	-153.17969	938.85071	-737.08765	-85.96194	915.76141	-739.27679	-251.44513	970.32983	-1158.15173	-281.75616	937.78021	-901.18127	-471.09225	1003.05566	-1099.92407	-485.78482	997.91266	-989.25702	-231.52399	675.09039	-1242.57019	-203.47005	474.23218	-1218.82593	-202.92157	278.89346	-1223.31506	-131.22707	68.60125	-1213.40027	-161.75151	36.8191	-1163.83337	27.605	55.12608	-1210.87341	-441.45795	650.69434	-853.94525	-500.28473	449.5748	-888.39172	-629.56067	309.86478	-892.00159	-739.69098	150.47885	-930.37238	-791.06799	119.82359	-989.03851	-627.48883	33.29267	-922.8194	-358.44669	1775.25525	-989.23853	NaN	NaN	NaN
34	0.33	-230.42584	1709.96606	-1063.19739	-261.34125	1683.42822	-924.4068	-360.48401	1643.84644	-1103.44604	-402.76492	1616.90759	-969.07349	-435.8952	1493.85535	-1032.98145	-480.21689	1217.1781	-1031.76318	-292.35605	1429.76257	-1048.55859	-235.9299	1260.49561	-1038.46887	-487.49875	1317.57483	-967.71631	-371.99094	1468.94104	-1214.21167	-439.48666	1276.20203	-1286.05518	-483.15594	1143.05725	-1279.78528	-526.54358	1019.48169	-1290.22437	-538.76672	883.45984	-1243.24927	-567.3208	901.69043	-1289.11267	-595.09338	838.21088	-1275.29956	-355.89673	1463.80042	-850.51471	-350.55911	1276.77966	-758.61377	-298.79297	1136.56714	-734.23224	-213.51308	1047.6095	-733.18201	-109.55595	971.55725	-769.49634	-142.96703	937.87524	-738.83026	-75.90926	914.61743	-739.97784	-235.84703	972.00067	-1161.76135	-263.91125	938.37408	-905.67255	-454.45721	1003.71204	-1103.56543	-470.00778	997.58331	-992.57098	-215.77206	676.69086	-1244.5437	-188.3526	476.07297	-1221.66699	-190.49374	281.87085	-1226.99536	-123.9295	67.29662	-1216.21387	-158.63776	38.03673	-1167.48462	33.66545	50.32077	-1208.76868	-423.49744	651.12939	-855.72778	-481.54062	450.33044	-886.13629	-615.30975	314.8295	-890.4635	-730.26208	159.32697	-928.38403	-781.40613	131.77202	-987.82465	-626.73981	33.14054	-922.29999	-345.35089	1775.9917	-990.9212	NaN	NaN	NaN
35	0.34	-217.14958	1711.02014	-1064.66846	-248.90019	1683.96082	-925.91809	-347.26193	1645.4353	-1105.6825	-390.06256	1618.19629	-971.46722	-423.13992	1494.38318	-1036.1908	-465.65347	1217.13135	-1034.8573	-279.49805	1431.27197	-1051.13257	-221.86319	1262.44434	-1041.47095	-474.60846	1317.4541	-971.4212	-358.77649	1470.01013	-1217.19482	-423.31229	1275.96448	-1289.57788	-465.66595	1142.27087	-1282.87927	-507.87286	1018.50214	-1293.88879	-519.57349	881.92993	-1246.1875	-547.63867	900.47754	-1293.13013	-575.125	836.89844	-1279.79419	-344.05692	1463.86243	-852.94641	-339.2403	1276.31873	-761.73846	-288.82788	1136.27283	-737.26996	-203.38486	1047.07507	-735.36713	-99.24117	970.4762	-771.08307	-133.51059	936.58069	-740.6861	-65.91531	913.04791	-740.67163	-219.77342	973.90137	-1166.19263	-245.8997	939.42029	-910.6756	-438.21964	1005.16467	-1106.91187	-453.77808	997.7475	-995.67493	-201.54443	677.9632	-1247.38171	-170.93178	478.93469	-1223.75879	-175.95311	285.5307	-1235.91309	-121.53324	67.49139	-1216.96716	-158.14989	39.08031	-1168.55249	34.85222	46.28139	-1210.40527	-404.61768	651.4035	-857.5412	-460.17834	450.34607	-884.22479	-598.60748	319.62772	-888.91693	-718.57733	168.48289	-926.76367	-769.35126	144.32619	-987.25665	-625.45667	33.05911	-922.28064	-332.34592	1777.03979	-992.59216	NaN	NaN	NaN
36	0.35	-203.95326	1712.32251	-1065.96997	-236.29842	1684.83594	-927.93359	-333.99078	1647.23718	-1107.75378	-377.67282	1619.48706	-973.96509	-410.3428	1495.69751	-1039.03662	-451.27536	1217.61816	-1037.74121	-266.64102	1433.10999	-1053.66394	-207.86046	1264.71594	-1044.49292	-461.08218	1317.35461	-975.07849	-345.57016	1471.4502	-1220.09094	-406.79843	1276.14209	-1292.95935	-447.68921	1141.8385	-1286.40503	-488.51529	1017.62531	-1297.63953	-498.94855	881.31195	-1250.88721	-526.86237	899.29565	-1297.2804	-553.71991	835.49585	-1284.52087	-332.19455	1464.67395	-854.85608	-327.95239	1275.94275	-765.05341	-277.86594	1135.94971	-740.32294	-193.64102	1046.026	-737.36377	-89.63661	968.7113	-772.12714	-124.59071	935.1897	-742.41168	-58.06802	910.43256	-741.87701	-204.66936	975.4895	-1169.87476	-228.53207	940.51294	-915.99182	-422.27786	1007.26563	-1110.03748	-437.49329	998.92926	-997.95038	-188.72852	679.09576	-1250.65234	-153.32202	481.46106	-1224.4436	-161.39691	288.75388	-1241.95361	-121.34668	69.00077	-1215.94861	-157.22289	39.79684	-1167.97839	36.24365	44.2756	-1213.14233	-384.78204	651.14935	-859.4068	-437.30331	449.91702	-882.35004	-579.39868	323.96173	-887.30707	-704.36768	177.64825	-925.65967	-754.39093	157.35719	-986.87006	-623.51776	33.0769	-923.18195	-319.28867	1778.41943	-994.16998	NaN	NaN	NaN
